@startuml EducationPlatformDomain

EducationPlatform *-[#green]-> "+" User
EducationPlatform *-[#green]-> content.Topic
EducationPlatform *-[#green]-> content.Itinerary : predefined
EducationPlatform o-[#green]-> "*" content.Itinerary : custom
EducationPlatform *-[#green]-> Evaluator
EducationPlatform *-[#green]-> "*" question_battery.Question
EducationPlatform *-[#green]-> "*" Category
EducationPlatform *-[#green]-> "*" Solution
EducationPlatform *-[#green]-> knowledge_base.KnowledgeBase

abstract Solution {
    - correct : boolean
    - evaluated : boolean
}
Solution <|--  Application
Solution <|-- Answer
Solution --> Student
Solution *--> "*" Justification:[!solution.correct]

abstract User{
}
User <|-- Teacher
User <|-- Student

class Teacher{
}

class Student{
}

class Justification {
}

package content #lightgreen{

    class Itinerary {
    }
    Itinerary o--> "+" Topic

    abstract Topic{
    }
    Topic <|-- CompositeTopic
    Topic <|-- SimpleTopic
    Topic *--> "*" Document

    class Document #red {}

    class SimpleTopic{
    }
    SimpleTopic o--> "+" knowledge_base.Concept

    class CompositeTopic{
    }
    CompositeTopic o--> "+" Topic
}

package knowledge_base #lightblue{

    class KnowledgeBase #red{
    }
    KnowledgeBase *-- "+" Concept

    class Concept{
    }
    Concept *-down-> "+" Definition
    Concept *-down-> "*" Relation : origin
    'Concept *-down-> "*" Attachment

    class Definition {
        - correct : boolean
    }
    Definition *--> "*" Justification:[!definition.correct]

    class Relation {
    }
    Relation --> Concept : target
    Relation *-down-> RelationType

    enum RelationType {
        Use
        Association
        Composition
        Inheritance
        Aggregation
    }

}

abstract Category {

}
Category <|-- CompositeCategory
CompositeCategory *--> Category
Category <|-- SimpleCategory

class Domain{
    version
}
Domain o--> "*" Category
Domain --> "+" SimpleTopic
Domain *-- "*" Domain



class Application{
  requirements
}
Application --> "*" Domain

package question_battery #yellow{

    class Question{
            statement : String
        }
    Question <|-- MultipleChoice
    Question <|-- Cloze
    Question <|-- Open
    Question --> "+" Concept
    'Open *-down- "+" Answer

    class Cloze{
        blankCount: int
    }

    class MultipleChoice{
    }
}

class Answer{
}
Answer --> Question

class Evaluator{
}
Evaluator ..> question_battery.Question
Evaluator ..> Answer

@enduml